<svg xmlns="http://www.w3.org/2000/svg" xmlns:xlink="http://www.w3.org/1999/xlink" width="380" zoomAndPan="magnify" viewBox="0 0 285 172.499995" height="230" preserveAspectRatio="xMidYMid meet" version="1.0"><defs><clipPath id="id1"><path d="M 0.410156 0 L 284.585938 0 L 284.585938 172 L 0.410156 172 Z M 0.410156 0 " clip-rule="nonzero"/></clipPath><clipPath id="id2"><path d="M 2.859375 0 L 18.144531 0 L 18.144531 15.300781 L 2.859375 15.300781 Z M 2.859375 0 " clip-rule="nonzero"/></clipPath><clipPath id="id3"><path d="M 18.144531 0 L 130.609375 0 L 130.609375 15.300781 L 18.144531 15.300781 Z M 18.144531 0 " clip-rule="nonzero"/></clipPath><clipPath id="id4"><path d="M 130.609375 0 L 243.070312 0 L 243.070312 15.300781 L 130.609375 15.300781 Z M 130.609375 0 " clip-rule="nonzero"/></clipPath><clipPath id="id5"><path d="M 243.070312 0 L 282.140625 0 L 282.140625 15.300781 L 243.070312 15.300781 Z M 243.070312 0 " clip-rule="nonzero"/></clipPath><clipPath id="id6"><path d="M 3 40 L 18.144531 40 L 18.144531 128 L 3 128 Z M 3 40 " clip-rule="nonzero"/></clipPath><clipPath id="id7"><path d="M 3 153 L 18.144531 153 L 18.144531 172 L 3 172 Z M 3 153 " clip-rule="nonzero"/></clipPath><clipPath id="id8"><path d="M 2.859375 15.300781 L 18.144531 15.300781 L 18.144531 128.496094 L 2.859375 128.496094 Z M 2.859375 15.300781 " clip-rule="nonzero"/></clipPath><clipPath id="id9"><path d="M 2.859375 128.496094 L 18.144531 128.496094 L 18.144531 172 L 2.859375 172 Z M 2.859375 128.496094 " clip-rule="nonzero"/></clipPath><clipPath id="id10"><path d="M 18.144531 40 L 130.609375 40 L 130.609375 128 L 18.144531 128 Z M 18.144531 40 " clip-rule="nonzero"/></clipPath><clipPath id="id11"><path d="M 18.144531 153 L 130.609375 153 L 130.609375 172 L 18.144531 172 Z M 18.144531 153 " clip-rule="nonzero"/></clipPath><clipPath id="id12"><path d="M 130.609375 40 L 243.070312 40 L 243.070312 128 L 130.609375 128 Z M 130.609375 40 " clip-rule="nonzero"/></clipPath><clipPath id="id13"><path d="M 130.609375 153 L 243.070312 153 L 243.070312 172 L 130.609375 172 Z M 130.609375 153 " clip-rule="nonzero"/></clipPath><clipPath id="id14"><path d="M 243.070312 40 L 282.140625 40 L 282.140625 128 L 243.070312 128 Z M 243.070312 40 " clip-rule="nonzero"/></clipPath><clipPath id="id15"><path d="M 243.070312 153 L 282.140625 153 L 282.140625 172 L 243.070312 172 Z M 243.070312 153 " clip-rule="nonzero"/></clipPath><clipPath id="id16"><path d="M 18.144531 15.300781 L 130.609375 15.300781 L 130.609375 128.496094 L 18.144531 128.496094 Z M 18.144531 15.300781 " clip-rule="nonzero"/></clipPath><clipPath id="id17"><path d="M 18.144531 128.496094 L 130.609375 128.496094 L 130.609375 172 L 18.144531 172 Z M 18.144531 128.496094 " clip-rule="nonzero"/></clipPath><clipPath id="id18"><path d="M 130.609375 15.300781 L 243.070312 15.300781 L 243.070312 128.496094 L 130.609375 128.496094 Z M 130.609375 15.300781 " clip-rule="nonzero"/></clipPath><clipPath id="id19"><path d="M 130.609375 128.496094 L 243.070312 128.496094 L 243.070312 172 L 130.609375 172 Z M 130.609375 128.496094 " clip-rule="nonzero"/></clipPath><clipPath id="id20"><path d="M 243.070312 15.300781 L 282.140625 15.300781 L 282.140625 128.496094 L 243.070312 128.496094 Z M 243.070312 15.300781 " clip-rule="nonzero"/></clipPath><clipPath id="id21"><path d="M 243.070312 128.496094 L 282.140625 128.496094 L 282.140625 172 L 243.070312 172 Z M 243.070312 128.496094 " clip-rule="nonzero"/></clipPath></defs><g clip-path="url(#id1)"><path fill="#ffffff" d="M 0.410156 0 L 284.589844 0 L 284.589844 178.730469 L 0.410156 178.730469 Z M 0.410156 0 " fill-opacity="1" fill-rule="nonzero"/><path fill="#ffffff" d="M 0.410156 0 L 284.589844 0 L 284.589844 172 L 0.410156 172 Z M 0.410156 0 " fill-opacity="1" fill-rule="nonzero"/><path fill="#ffffff" d="M 0.410156 0 L 284.589844 0 L 284.589844 172 L 0.410156 172 Z M 0.410156 0 " fill-opacity="1" fill-rule="nonzero"/><path fill="#ffffff" d="M 0.410156 0 L 284.589844 0 L 284.589844 172 L 0.410156 172 Z M 0.410156 0 " fill-opacity="1" fill-rule="nonzero"/></g><g clip-path="url(#id2)"><path fill="#a6a6a6" d="M 130.5 41.652344 L 127.792969 44.359375 L 130.5 47.066406 L 129.339844 48.226562 L 126.636719 45.519531 L 123.988281 48.226562 L 122.828125 47.066406 L 125.53125 44.359375 L 122.828125 41.652344 L 123.988281 40.492188 L 126.636719 43.199219 L 129.339844 40.492188 L 130.5 41.652344 M 122.550781 4.640625 C 122.550781 2.429688 124.316406 0.664062 126.523438 0.664062 C 128.734375 0.664062 130.5 2.429688 130.5 4.640625 C 130.5 6.851562 128.734375 8.617188 126.523438 8.617188 C 124.316406 8.617188 122.550781 6.851562 122.550781 4.640625 M 124.207031 4.640625 C 124.207031 5.910156 125.257812 6.960938 126.523438 6.960938 C 127.792969 6.960938 128.84375 5.910156 128.84375 4.640625 C 128.84375 3.371094 127.792969 2.320312 126.523438 2.320312 C 125.257812 2.320312 124.207031 3.371094 124.207031 4.640625 M 3.46875 44.359375 C 3.46875 42.148438 5.234375 40.382812 7.441406 40.382812 C 9.648438 40.382812 11.414062 42.148438 11.414062 44.359375 C 11.414062 46.570312 9.648438 48.335938 7.441406 48.335938 C 5.234375 48.335938 3.46875 46.570312 3.46875 44.359375 M 5.125 44.359375 C 5.125 45.628906 6.171875 46.679688 7.441406 46.679688 C 8.710938 46.679688 9.757812 45.628906 9.757812 44.359375 C 9.757812 43.089844 8.710938 42.039062 7.441406 42.039062 C 6.171875 42.039062 5.125 43.089844 5.125 44.359375 M 8.324219 119.269531 L 6.667969 119.269531 L 6.667969 123.082031 L 2.859375 123.082031 L 2.859375 124.738281 L 6.613281 124.738281 L 6.613281 128.496094 L 8.269531 128.496094 L 8.269531 124.683594 L 12.078125 124.683594 L 12.078125 123.027344 L 8.324219 123.027344 L 8.324219 119.269531 M 4.902344 8.507812 L 7.605469 5.800781 L 10.308594 8.507812 L 11.414062 7.347656 L 8.765625 4.640625 L 11.414062 1.933594 L 10.253906 0.773438 L 7.605469 3.480469 L 4.957031 0.773438 L 3.796875 1.933594 L 6.449219 4.585938 L 3.742188 7.347656 L 4.902344 8.507812 M 130.609375 123.910156 C 130.609375 126.121094 128.84375 127.886719 126.636719 127.886719 C 124.429688 127.886719 122.664062 126.121094 122.664062 123.910156 C 122.664062 121.699219 124.429688 119.933594 126.636719 119.933594 C 128.84375 119.933594 130.609375 121.699219 130.609375 123.910156 M 128.953125 123.910156 C 128.953125 122.640625 127.90625 121.589844 126.636719 121.589844 C 125.367188 121.589844 124.316406 122.640625 124.316406 123.910156 C 124.316406 125.179688 125.367188 126.230469 126.636719 126.230469 C 127.90625 126.230469 128.953125 125.179688 128.953125 123.910156 M 89.554688 80.269531 L 86.847656 82.976562 L 84.199219 80.269531 L 83.042969 81.429688 L 85.746094 84.136719 L 83.042969 86.839844 L 84.199219 88 L 86.847656 85.296875 L 89.554688 88 L 90.710938 86.839844 L 88.007812 84.136719 L 90.710938 81.429688 L 89.554688 80.269531 M 87.730469 0 L 86.078125 0 L 86.078125 3.8125 L 82.324219 3.8125 L 82.324219 5.46875 L 86.019531 5.46875 L 86.019531 9.226562 L 87.675781 9.226562 L 87.675781 5.414062 L 91.539062 5.414062 L 91.539062 3.757812 L 87.730469 3.757812 L 87.730469 0 M 51.144531 84.136719 C 51.144531 86.34375 49.378906 88.113281 47.171875 88.113281 C 44.964844 88.113281 43.199219 86.34375 43.199219 84.136719 C 43.199219 81.925781 44.964844 80.15625 47.171875 80.15625 C 49.378906 80.15625 51.144531 81.925781 51.144531 84.136719 M 49.488281 84.136719 C 49.488281 82.863281 48.441406 81.816406 47.171875 81.816406 C 45.902344 81.816406 44.855469 82.863281 44.855469 84.136719 C 44.855469 85.40625 45.902344 86.453125 47.171875 86.453125 C 48.441406 86.453125 49.488281 85.40625 49.488281 84.136719 M 51.257812 4.640625 C 51.257812 6.851562 49.488281 8.617188 47.28125 8.617188 C 45.074219 8.617188 43.308594 6.851562 43.308594 4.640625 C 43.308594 2.429688 45.128906 0.664062 47.28125 0.664062 C 49.488281 0.664062 51.257812 2.429688 51.257812 4.640625 M 49.601562 4.640625 C 49.601562 3.371094 48.550781 2.320312 47.28125 2.320312 C 46.011719 2.320312 44.964844 3.371094 44.964844 4.640625 C 44.964844 5.910156 46.011719 6.960938 47.28125 6.960938 C 48.550781 6.960938 49.601562 5.910156 49.601562 4.640625 M 49.875 119.988281 L 47.226562 122.695312 L 44.523438 119.988281 L 43.363281 121.148438 L 46.070312 123.855469 L 43.363281 126.5625 L 44.523438 127.722656 L 47.226562 125.015625 L 49.875 127.722656 L 51.035156 126.5625 L 48.332031 123.855469 L 51.035156 121.148438 L 49.875 119.988281 " fill-opacity="1" fill-rule="nonzero"/></g><g clip-path="url(#id3)"><path fill="#a6a6a6" d="M 130.5 41.652344 L 127.792969 44.359375 L 130.5 47.066406 L 129.339844 48.226562 L 126.636719 45.519531 L 123.988281 48.226562 L 122.828125 47.066406 L 125.53125 44.359375 L 122.828125 41.652344 L 123.988281 40.492188 L 126.636719 43.199219 L 129.339844 40.492188 L 130.5 41.652344 M 122.550781 4.640625 C 122.550781 2.429688 124.316406 0.664062 126.523438 0.664062 C 128.734375 0.664062 130.5 2.429688 130.5 4.640625 C 130.5 6.851562 128.734375 8.617188 126.523438 8.617188 C 124.316406 8.617188 122.550781 6.851562 122.550781 4.640625 M 124.207031 4.640625 C 124.207031 5.910156 125.257812 6.960938 126.523438 6.960938 C 127.792969 6.960938 128.84375 5.910156 128.84375 4.640625 C 128.84375 3.371094 127.792969 2.320312 126.523438 2.320312 C 125.257812 2.320312 124.207031 3.371094 124.207031 4.640625 M 3.46875 44.359375 C 3.46875 42.148438 5.234375 40.382812 7.441406 40.382812 C 9.648438 40.382812 11.414062 42.148438 11.414062 44.359375 C 11.414062 46.570312 9.648438 48.335938 7.441406 48.335938 C 5.234375 48.335938 3.46875 46.570312 3.46875 44.359375 M 5.125 44.359375 C 5.125 45.628906 6.171875 46.679688 7.441406 46.679688 C 8.710938 46.679688 9.757812 45.628906 9.757812 44.359375 C 9.757812 43.089844 8.710938 42.039062 7.441406 42.039062 C 6.171875 42.039062 5.125 43.089844 5.125 44.359375 M 8.324219 119.269531 L 6.667969 119.269531 L 6.667969 123.082031 L 2.859375 123.082031 L 2.859375 124.738281 L 6.613281 124.738281 L 6.613281 128.496094 L 8.269531 128.496094 L 8.269531 124.683594 L 12.078125 124.683594 L 12.078125 123.027344 L 8.324219 123.027344 L 8.324219 119.269531 M 4.902344 8.507812 L 7.605469 5.800781 L 10.308594 8.507812 L 11.414062 7.347656 L 8.765625 4.640625 L 11.414062 1.933594 L 10.253906 0.773438 L 7.605469 3.480469 L 4.957031 0.773438 L 3.796875 1.933594 L 6.449219 4.585938 L 3.742188 7.347656 L 4.902344 8.507812 M 130.609375 123.910156 C 130.609375 126.121094 128.84375 127.886719 126.636719 127.886719 C 124.429688 127.886719 122.664062 126.121094 122.664062 123.910156 C 122.664062 121.699219 124.429688 119.933594 126.636719 119.933594 C 128.84375 119.933594 130.609375 121.699219 130.609375 123.910156 M 128.953125 123.910156 C 128.953125 122.640625 127.90625 121.589844 126.636719 121.589844 C 125.367188 121.589844 124.316406 122.640625 124.316406 123.910156 C 124.316406 125.179688 125.367188 126.230469 126.636719 126.230469 C 127.90625 126.230469 128.953125 125.179688 128.953125 123.910156 M 89.554688 80.269531 L 86.847656 82.976562 L 84.199219 80.269531 L 83.042969 81.429688 L 85.746094 84.136719 L 83.042969 86.839844 L 84.199219 88 L 86.847656 85.296875 L 89.554688 88 L 90.710938 86.839844 L 88.007812 84.136719 L 90.710938 81.429688 L 89.554688 80.269531 M 87.730469 0 L 86.078125 0 L 86.078125 3.8125 L 82.324219 3.8125 L 82.324219 5.46875 L 86.019531 5.46875 L 86.019531 9.226562 L 87.675781 9.226562 L 87.675781 5.414062 L 91.539062 5.414062 L 91.539062 3.757812 L 87.730469 3.757812 L 87.730469 0 M 51.144531 84.136719 C 51.144531 86.34375 49.378906 88.113281 47.171875 88.113281 C 44.964844 88.113281 43.199219 86.34375 43.199219 84.136719 C 43.199219 81.925781 44.964844 80.15625 47.171875 80.15625 C 49.378906 80.15625 51.144531 81.925781 51.144531 84.136719 M 49.488281 84.136719 C 49.488281 82.863281 48.441406 81.816406 47.171875 81.816406 C 45.902344 81.816406 44.855469 82.863281 44.855469 84.136719 C 44.855469 85.40625 45.902344 86.453125 47.171875 86.453125 C 48.441406 86.453125 49.488281 85.40625 49.488281 84.136719 M 51.257812 4.640625 C 51.257812 6.851562 49.488281 8.617188 47.28125 8.617188 C 45.074219 8.617188 43.308594 6.851562 43.308594 4.640625 C 43.308594 2.429688 45.128906 0.664062 47.28125 0.664062 C 49.488281 0.664062 51.257812 2.429688 51.257812 4.640625 M 49.601562 4.640625 C 49.601562 3.371094 48.550781 2.320312 47.28125 2.320312 C 46.011719 2.320312 44.964844 3.371094 44.964844 4.640625 C 44.964844 5.910156 46.011719 6.960938 47.28125 6.960938 C 48.550781 6.960938 49.601562 5.910156 49.601562 4.640625 M 49.875 119.988281 L 47.226562 122.695312 L 44.523438 119.988281 L 43.363281 121.148438 L 46.070312 123.855469 L 43.363281 126.5625 L 44.523438 127.722656 L 47.226562 125.015625 L 49.875 127.722656 L 51.035156 126.5625 L 48.332031 123.855469 L 51.035156 121.148438 L 49.875 119.988281 " fill-opacity="1" fill-rule="nonzero"/></g><g clip-path="url(#id4)"><path fill="#a6a6a6" d="M 242.960938 41.652344 L 240.257812 44.359375 L 242.960938 47.066406 L 241.800781 48.226562 L 239.097656 45.519531 L 236.449219 48.226562 L 235.289062 47.066406 L 237.996094 44.359375 L 235.289062 41.652344 L 236.449219 40.492188 L 239.097656 43.199219 L 241.800781 40.492188 L 242.960938 41.652344 M 235.015625 4.640625 C 235.015625 2.429688 236.78125 0.664062 238.988281 0.664062 C 241.195312 0.664062 242.960938 2.429688 242.960938 4.640625 C 242.960938 6.851562 241.195312 8.617188 238.988281 8.617188 C 236.78125 8.617188 235.015625 6.851562 235.015625 4.640625 M 236.671875 4.640625 C 236.671875 5.910156 237.71875 6.960938 238.988281 6.960938 C 240.257812 6.960938 241.304688 5.910156 241.304688 4.640625 C 241.304688 3.371094 240.257812 2.320312 238.988281 2.320312 C 237.71875 2.320312 236.671875 3.371094 236.671875 4.640625 M 115.929688 44.359375 C 115.929688 42.148438 117.695312 40.382812 119.902344 40.382812 C 122.109375 40.382812 123.875 42.148438 123.875 44.359375 C 123.875 46.570312 122.109375 48.335938 119.902344 48.335938 C 117.695312 48.335938 115.929688 46.570312 115.929688 44.359375 M 117.585938 44.359375 C 117.585938 45.628906 118.632812 46.679688 119.902344 46.679688 C 121.171875 46.679688 122.222656 45.628906 122.222656 44.359375 C 122.222656 43.089844 121.171875 42.039062 119.902344 42.039062 C 118.632812 42.039062 117.585938 43.089844 117.585938 44.359375 M 120.785156 119.269531 L 119.128906 119.269531 L 119.128906 123.082031 L 115.324219 123.082031 L 115.324219 124.738281 L 119.074219 124.738281 L 119.074219 128.496094 L 120.730469 128.496094 L 120.730469 124.683594 L 124.539062 124.683594 L 124.539062 123.027344 L 120.785156 123.027344 L 120.785156 119.269531 M 117.363281 8.507812 L 120.070312 5.800781 L 122.773438 8.507812 L 123.875 7.347656 L 121.226562 4.640625 L 123.875 1.933594 L 122.71875 0.773438 L 120.070312 3.480469 L 117.421875 0.773438 L 116.261719 1.933594 L 118.910156 4.585938 L 116.207031 7.347656 L 117.363281 8.507812 M 243.070312 123.910156 C 243.070312 126.121094 241.304688 127.886719 239.097656 127.886719 C 236.890625 127.886719 235.125 126.121094 235.125 123.910156 C 235.125 121.699219 236.890625 119.933594 239.097656 119.933594 C 241.304688 119.933594 243.070312 121.699219 243.070312 123.910156 M 241.414062 123.910156 C 241.414062 122.640625 240.367188 121.589844 239.097656 121.589844 C 237.828125 121.589844 236.78125 122.640625 236.78125 123.910156 C 236.78125 125.179688 237.828125 126.230469 239.097656 126.230469 C 240.367188 126.230469 241.414062 125.179688 241.414062 123.910156 M 202.015625 80.269531 L 199.3125 82.976562 L 196.664062 80.269531 L 195.503906 81.429688 L 198.207031 84.136719 L 195.503906 86.839844 L 196.664062 88 L 199.3125 85.296875 L 202.015625 88 L 203.175781 86.839844 L 200.46875 84.136719 L 203.175781 81.429688 L 202.015625 80.269531 M 200.195312 0 L 198.539062 0 L 198.539062 3.8125 L 194.785156 3.8125 L 194.785156 5.46875 L 198.484375 5.46875 L 198.484375 9.226562 L 200.140625 9.226562 L 200.140625 5.414062 L 204.003906 5.414062 L 204.003906 3.757812 L 200.195312 3.757812 L 200.195312 0 M 163.609375 84.136719 C 163.609375 86.34375 161.84375 88.113281 159.636719 88.113281 C 157.425781 88.113281 155.660156 86.34375 155.660156 84.136719 C 155.660156 81.925781 157.425781 80.15625 159.636719 80.15625 C 161.84375 80.15625 163.609375 81.925781 163.609375 84.136719 M 161.953125 84.136719 C 161.953125 82.863281 160.902344 81.816406 159.636719 81.816406 C 158.367188 81.816406 157.316406 82.863281 157.316406 84.136719 C 157.316406 85.40625 158.367188 86.453125 159.636719 86.453125 C 160.902344 86.453125 161.953125 85.40625 161.953125 84.136719 M 163.71875 4.640625 C 163.71875 6.851562 161.953125 8.617188 159.746094 8.617188 C 157.539062 8.617188 155.773438 6.851562 155.773438 4.640625 C 155.773438 2.429688 157.59375 0.664062 159.746094 0.664062 C 161.953125 0.664062 163.71875 2.429688 163.71875 4.640625 M 162.0625 4.640625 C 162.0625 3.371094 161.015625 2.320312 159.746094 2.320312 C 158.476562 2.320312 157.425781 3.371094 157.425781 4.640625 C 157.425781 5.910156 158.476562 6.960938 159.746094 6.960938 C 161.015625 6.960938 162.0625 5.910156 162.0625 4.640625 M 162.339844 119.988281 L 159.691406 122.695312 L 156.984375 119.988281 L 155.828125 121.148438 L 158.53125 123.855469 L 155.828125 126.5625 L 156.984375 127.722656 L 159.691406 125.015625 L 162.339844 127.722656 L 163.496094 126.5625 L 160.792969 123.855469 L 163.496094 121.148438 L 162.339844 119.988281 " fill-opacity="1" fill-rule="nonzero"/></g><g clip-path="url(#id5)"><path fill="#a6a6a6" d="M 355.421875 41.652344 L 352.71875 44.359375 L 355.421875 47.066406 L 354.265625 48.226562 L 351.5625 45.519531 L 348.910156 48.226562 L 347.753906 47.066406 L 350.457031 44.359375 L 347.753906 41.652344 L 348.910156 40.492188 L 351.5625 43.199219 L 354.265625 40.492188 L 355.421875 41.652344 M 347.476562 4.640625 C 347.476562 2.429688 349.242188 0.664062 351.449219 0.664062 C 353.65625 0.664062 355.421875 2.429688 355.421875 4.640625 C 355.421875 6.851562 353.65625 8.617188 351.449219 8.617188 C 349.242188 8.617188 347.476562 6.851562 347.476562 4.640625 M 349.132812 4.640625 C 349.132812 5.910156 350.179688 6.960938 351.449219 6.960938 C 352.71875 6.960938 353.769531 5.910156 353.769531 4.640625 C 353.769531 3.371094 352.71875 2.320312 351.449219 2.320312 C 350.179688 2.320312 349.132812 3.371094 349.132812 4.640625 M 228.394531 44.359375 C 228.394531 42.148438 230.160156 40.382812 232.367188 40.382812 C 234.574219 40.382812 236.339844 42.148438 236.339844 44.359375 C 236.339844 46.570312 234.574219 48.335938 232.367188 48.335938 C 230.160156 48.335938 228.394531 46.570312 228.394531 44.359375 M 230.046875 44.359375 C 230.046875 45.628906 231.097656 46.679688 232.367188 46.679688 C 233.636719 46.679688 234.683594 45.628906 234.683594 44.359375 C 234.683594 43.089844 233.636719 42.039062 232.367188 42.039062 C 231.097656 42.039062 230.046875 43.089844 230.046875 44.359375 M 233.25 119.269531 L 231.59375 119.269531 L 231.59375 123.082031 L 227.785156 123.082031 L 227.785156 124.738281 L 231.539062 124.738281 L 231.539062 128.496094 L 233.195312 128.496094 L 233.195312 124.683594 L 237 124.683594 L 237 123.027344 L 233.25 123.027344 L 233.25 119.269531 M 229.828125 8.507812 L 232.53125 5.800781 L 235.234375 8.507812 L 236.339844 7.347656 L 233.691406 4.640625 L 236.339844 1.933594 L 235.179688 0.773438 L 232.53125 3.480469 L 229.882812 0.773438 L 228.722656 1.933594 L 231.371094 4.585938 L 228.667969 7.347656 L 229.828125 8.507812 M 355.535156 123.910156 C 355.535156 126.121094 353.769531 127.886719 351.5625 127.886719 C 349.351562 127.886719 347.585938 126.121094 347.585938 123.910156 C 347.585938 121.699219 349.351562 119.933594 351.5625 119.933594 C 353.769531 119.933594 355.535156 121.699219 355.535156 123.910156 M 353.878906 123.910156 C 353.878906 122.640625 352.828125 121.589844 351.5625 121.589844 C 350.292969 121.589844 349.242188 122.640625 349.242188 123.910156 C 349.242188 125.179688 350.292969 126.230469 351.5625 126.230469 C 352.828125 126.230469 353.878906 125.179688 353.878906 123.910156 M 314.476562 80.269531 L 311.773438 82.976562 L 309.125 80.269531 L 307.964844 81.429688 L 310.671875 84.136719 L 307.964844 86.839844 L 309.125 88 L 311.773438 85.296875 L 314.476562 88 L 315.636719 86.839844 L 312.933594 84.136719 L 315.636719 81.429688 L 314.476562 80.269531 M 312.65625 0 L 311 0 L 311 3.8125 L 307.25 3.8125 L 307.25 5.46875 L 310.945312 5.46875 L 310.945312 9.226562 L 312.601562 9.226562 L 312.601562 5.414062 L 316.464844 5.414062 L 316.464844 3.757812 L 312.65625 3.757812 L 312.65625 0 M 276.070312 84.136719 C 276.070312 86.34375 274.304688 88.113281 272.097656 88.113281 C 269.890625 88.113281 268.125 86.34375 268.125 84.136719 C 268.125 81.925781 269.890625 80.15625 272.097656 80.15625 C 274.304688 80.15625 276.070312 81.925781 276.070312 84.136719 M 274.414062 84.136719 C 274.414062 82.863281 273.367188 81.816406 272.097656 81.816406 C 270.828125 81.816406 269.78125 82.863281 269.78125 84.136719 C 269.78125 85.40625 270.828125 86.453125 272.097656 86.453125 C 273.367188 86.453125 274.414062 85.40625 274.414062 84.136719 M 276.179688 4.640625 C 276.179688 6.851562 274.414062 8.617188 272.207031 8.617188 C 270 8.617188 268.234375 6.851562 268.234375 4.640625 C 268.234375 2.429688 270.054688 0.664062 272.207031 0.664062 C 274.414062 0.664062 276.179688 2.429688 276.179688 4.640625 M 274.527344 4.640625 C 274.527344 3.371094 273.476562 2.320312 272.207031 2.320312 C 270.9375 2.320312 269.890625 3.371094 269.890625 4.640625 C 269.890625 5.910156 270.9375 6.960938 272.207031 6.960938 C 273.476562 6.960938 274.527344 5.910156 274.527344 4.640625 M 274.800781 119.988281 L 272.152344 122.695312 L 269.449219 119.988281 L 268.289062 121.148438 L 270.992188 123.855469 L 268.289062 126.5625 L 269.449219 127.722656 L 272.152344 125.015625 L 274.800781 127.722656 L 275.960938 126.5625 L 273.257812 123.855469 L 275.960938 121.148438 L 274.800781 119.988281 " fill-opacity="1" fill-rule="nonzero"/></g><g clip-path="url(#id6)"><path fill="#a6a6a6" d="M 11.523438 84.136719 C 11.523438 86.34375 9.757812 88.113281 7.550781 88.113281 C 5.34375 88.113281 3.578125 86.34375 3.578125 84.136719 C 3.578125 81.925781 5.34375 80.15625 7.550781 80.15625 C 9.757812 80.15625 11.523438 81.925781 11.523438 84.136719 M 47.171875 40.382812 C 44.964844 40.382812 43.199219 42.148438 43.199219 44.359375 C 43.199219 46.570312 44.964844 48.335938 47.171875 48.335938 C 49.378906 48.335938 51.144531 46.570312 51.144531 44.359375 C 51.144531 42.148438 49.378906 40.382812 47.171875 40.382812 M 86.902344 40.382812 C 84.695312 40.382812 82.929688 42.148438 82.929688 44.359375 C 82.929688 46.570312 84.695312 48.335938 86.902344 48.335938 C 89.113281 48.335938 90.878906 46.570312 90.878906 44.359375 C 90.878906 42.148438 89.054688 40.382812 86.902344 40.382812 M 126.636719 80.15625 C 124.429688 80.15625 122.664062 81.925781 122.664062 84.136719 C 122.664062 86.34375 124.429688 88.113281 126.636719 88.113281 C 128.84375 88.113281 130.609375 86.34375 130.609375 84.136719 C 130.609375 81.925781 128.84375 80.15625 126.636719 80.15625 M 86.902344 119.933594 C 84.695312 119.933594 82.929688 121.699219 82.929688 123.910156 C 82.929688 126.121094 84.695312 127.886719 86.902344 127.886719 C 89.113281 127.886719 90.878906 126.121094 90.878906 123.910156 C 90.878906 121.699219 89.054688 119.933594 86.902344 119.933594 " fill-opacity="1" fill-rule="nonzero"/></g><g clip-path="url(#id7)"><path fill="#a6a6a6" d="M 11.523438 197.328125 C 11.523438 199.539062 9.757812 201.304688 7.550781 201.304688 C 5.34375 201.304688 3.578125 199.539062 3.578125 197.328125 C 3.578125 195.117188 5.34375 193.351562 7.550781 193.351562 C 9.757812 193.351562 11.523438 195.117188 11.523438 197.328125 M 47.171875 153.574219 C 44.964844 153.574219 43.199219 155.34375 43.199219 157.550781 C 43.199219 159.761719 44.964844 161.53125 47.171875 161.53125 C 49.378906 161.53125 51.144531 159.761719 51.144531 157.550781 C 51.144531 155.34375 49.378906 153.574219 47.171875 153.574219 M 86.902344 153.574219 C 84.695312 153.574219 82.929688 155.34375 82.929688 157.550781 C 82.929688 159.761719 84.695312 161.53125 86.902344 161.53125 C 89.113281 161.53125 90.878906 159.761719 90.878906 157.550781 C 90.878906 155.34375 89.054688 153.574219 86.902344 153.574219 M 126.636719 193.351562 C 124.429688 193.351562 122.664062 195.117188 122.664062 197.328125 C 122.664062 199.539062 124.429688 201.304688 126.636719 201.304688 C 128.84375 201.304688 130.609375 199.539062 130.609375 197.328125 C 130.609375 195.117188 128.84375 193.351562 126.636719 193.351562 M 86.902344 233.125 C 84.695312 233.125 82.929688 234.890625 82.929688 237.101562 C 82.929688 239.3125 84.695312 241.078125 86.902344 241.078125 C 89.113281 241.078125 90.878906 239.3125 90.878906 237.101562 C 90.878906 234.890625 89.054688 233.125 86.902344 233.125 " fill-opacity="1" fill-rule="nonzero"/></g><g clip-path="url(#id8)"><path fill="#a6a6a6" d="M 130.5 41.652344 L 127.792969 44.359375 L 130.5 47.066406 L 129.339844 48.226562 L 126.636719 45.519531 L 123.988281 48.226562 L 122.828125 47.066406 L 125.53125 44.359375 L 122.828125 41.652344 L 123.988281 40.492188 L 126.636719 43.199219 L 129.339844 40.492188 L 130.5 41.652344 M 122.550781 4.640625 C 122.550781 2.429688 124.316406 0.664062 126.523438 0.664062 C 128.734375 0.664062 130.5 2.429688 130.5 4.640625 C 130.5 6.851562 128.734375 8.617188 126.523438 8.617188 C 124.316406 8.617188 122.550781 6.851562 122.550781 4.640625 M 124.207031 4.640625 C 124.207031 5.910156 125.257812 6.960938 126.523438 6.960938 C 127.792969 6.960938 128.84375 5.910156 128.84375 4.640625 C 128.84375 3.371094 127.792969 2.320312 126.523438 2.320312 C 125.257812 2.320312 124.207031 3.371094 124.207031 4.640625 M 3.46875 44.359375 C 3.46875 42.148438 5.234375 40.382812 7.441406 40.382812 C 9.648438 40.382812 11.414062 42.148438 11.414062 44.359375 C 11.414062 46.570312 9.648438 48.335938 7.441406 48.335938 C 5.234375 48.335938 3.46875 46.570312 3.46875 44.359375 M 5.125 44.359375 C 5.125 45.628906 6.171875 46.679688 7.441406 46.679688 C 8.710938 46.679688 9.757812 45.628906 9.757812 44.359375 C 9.757812 43.089844 8.710938 42.039062 7.441406 42.039062 C 6.171875 42.039062 5.125 43.089844 5.125 44.359375 M 8.324219 119.269531 L 6.667969 119.269531 L 6.667969 123.082031 L 2.859375 123.082031 L 2.859375 124.738281 L 6.613281 124.738281 L 6.613281 128.496094 L 8.269531 128.496094 L 8.269531 124.683594 L 12.078125 124.683594 L 12.078125 123.027344 L 8.324219 123.027344 L 8.324219 119.269531 M 4.902344 8.507812 L 7.605469 5.800781 L 10.308594 8.507812 L 11.414062 7.347656 L 8.765625 4.640625 L 11.414062 1.933594 L 10.253906 0.773438 L 7.605469 3.480469 L 4.957031 0.773438 L 3.796875 1.933594 L 6.449219 4.585938 L 3.742188 7.347656 L 4.902344 8.507812 M 130.609375 123.910156 C 130.609375 126.121094 128.84375 127.886719 126.636719 127.886719 C 124.429688 127.886719 122.664062 126.121094 122.664062 123.910156 C 122.664062 121.699219 124.429688 119.933594 126.636719 119.933594 C 128.84375 119.933594 130.609375 121.699219 130.609375 123.910156 M 128.953125 123.910156 C 128.953125 122.640625 127.90625 121.589844 126.636719 121.589844 C 125.367188 121.589844 124.316406 122.640625 124.316406 123.910156 C 124.316406 125.179688 125.367188 126.230469 126.636719 126.230469 C 127.90625 126.230469 128.953125 125.179688 128.953125 123.910156 M 89.554688 80.269531 L 86.847656 82.976562 L 84.199219 80.269531 L 83.042969 81.429688 L 85.746094 84.136719 L 83.042969 86.839844 L 84.199219 88 L 86.847656 85.296875 L 89.554688 88 L 90.710938 86.839844 L 88.007812 84.136719 L 90.710938 81.429688 L 89.554688 80.269531 M 87.730469 0 L 86.078125 0 L 86.078125 3.8125 L 82.324219 3.8125 L 82.324219 5.46875 L 86.019531 5.46875 L 86.019531 9.226562 L 87.675781 9.226562 L 87.675781 5.414062 L 91.539062 5.414062 L 91.539062 3.757812 L 87.730469 3.757812 L 87.730469 0 M 51.144531 84.136719 C 51.144531 86.34375 49.378906 88.113281 47.171875 88.113281 C 44.964844 88.113281 43.199219 86.34375 43.199219 84.136719 C 43.199219 81.925781 44.964844 80.15625 47.171875 80.15625 C 49.378906 80.15625 51.144531 81.925781 51.144531 84.136719 M 49.488281 84.136719 C 49.488281 82.863281 48.441406 81.816406 47.171875 81.816406 C 45.902344 81.816406 44.855469 82.863281 44.855469 84.136719 C 44.855469 85.40625 45.902344 86.453125 47.171875 86.453125 C 48.441406 86.453125 49.488281 85.40625 49.488281 84.136719 M 51.257812 4.640625 C 51.257812 6.851562 49.488281 8.617188 47.28125 8.617188 C 45.074219 8.617188 43.308594 6.851562 43.308594 4.640625 C 43.308594 2.429688 45.128906 0.664062 47.28125 0.664062 C 49.488281 0.664062 51.257812 2.429688 51.257812 4.640625 M 49.601562 4.640625 C 49.601562 3.371094 48.550781 2.320312 47.28125 2.320312 C 46.011719 2.320312 44.964844 3.371094 44.964844 4.640625 C 44.964844 5.910156 46.011719 6.960938 47.28125 6.960938 C 48.550781 6.960938 49.601562 5.910156 49.601562 4.640625 M 49.875 119.988281 L 47.226562 122.695312 L 44.523438 119.988281 L 43.363281 121.148438 L 46.070312 123.855469 L 43.363281 126.5625 L 44.523438 127.722656 L 47.226562 125.015625 L 49.875 127.722656 L 51.035156 126.5625 L 48.332031 123.855469 L 51.035156 121.148438 L 49.875 119.988281 " fill-opacity="1" fill-rule="nonzero"/></g><g clip-path="url(#id9)"><path fill="#a6a6a6" d="M 130.5 154.84375 L 127.792969 157.550781 L 130.5 160.257812 L 129.339844 161.417969 L 126.636719 158.710938 L 123.988281 161.417969 L 122.828125 160.257812 L 125.53125 157.550781 L 122.828125 154.84375 L 123.988281 153.6875 L 126.636719 156.390625 L 129.339844 153.6875 L 130.5 154.84375 M 122.550781 117.832031 C 122.550781 115.625 124.316406 113.855469 126.523438 113.855469 C 128.734375 113.855469 130.5 115.625 130.5 117.832031 C 130.5 120.042969 128.734375 121.808594 126.523438 121.808594 C 124.316406 121.808594 122.550781 120.042969 122.550781 117.832031 M 124.207031 117.832031 C 124.207031 119.105469 125.257812 120.152344 126.523438 120.152344 C 127.792969 120.152344 128.84375 119.105469 128.84375 117.832031 C 128.84375 116.5625 127.792969 115.511719 126.523438 115.511719 C 125.257812 115.511719 124.207031 116.5625 124.207031 117.832031 M 3.46875 157.550781 C 3.46875 155.34375 5.234375 153.574219 7.441406 153.574219 C 9.648438 153.574219 11.414062 155.34375 11.414062 157.550781 C 11.414062 159.761719 9.648438 161.53125 7.441406 161.53125 C 5.234375 161.53125 3.46875 159.761719 3.46875 157.550781 M 5.125 157.550781 C 5.125 158.824219 6.171875 159.871094 7.441406 159.871094 C 8.710938 159.871094 9.757812 158.824219 9.757812 157.550781 C 9.757812 156.28125 8.710938 155.230469 7.441406 155.230469 C 6.171875 155.230469 5.125 156.28125 5.125 157.550781 M 8.324219 232.460938 L 6.667969 232.460938 L 6.667969 236.273438 L 2.859375 236.273438 L 2.859375 237.929688 L 6.613281 237.929688 L 6.613281 241.6875 L 8.269531 241.6875 L 8.269531 237.875 L 12.078125 237.875 L 12.078125 236.21875 L 8.324219 236.21875 L 8.324219 232.460938 M 4.902344 121.699219 L 7.605469 118.992188 L 10.308594 121.699219 L 11.414062 120.539062 L 8.765625 117.832031 L 11.414062 115.125 L 10.253906 113.964844 L 7.605469 116.671875 L 4.957031 113.964844 L 3.796875 115.125 L 6.449219 117.777344 L 3.742188 120.539062 L 4.902344 121.699219 M 130.609375 237.101562 C 130.609375 239.3125 128.84375 241.078125 126.636719 241.078125 C 124.429688 241.078125 122.664062 239.3125 122.664062 237.101562 C 122.664062 234.890625 124.429688 233.125 126.636719 233.125 C 128.84375 233.125 130.609375 234.890625 130.609375 237.101562 M 128.953125 237.101562 C 128.953125 235.832031 127.90625 234.78125 126.636719 234.78125 C 125.367188 234.78125 124.316406 235.832031 124.316406 237.101562 C 124.316406 238.371094 125.367188 239.421875 126.636719 239.421875 C 127.90625 239.421875 128.953125 238.371094 128.953125 237.101562 M 89.554688 193.460938 L 86.847656 196.167969 L 84.199219 193.460938 L 83.042969 194.621094 L 85.746094 197.328125 L 83.042969 200.035156 L 84.199219 201.195312 L 86.847656 198.488281 L 89.554688 201.195312 L 90.710938 200.035156 L 88.007812 197.328125 L 90.710938 194.621094 L 89.554688 193.460938 M 87.730469 113.191406 L 86.078125 113.191406 L 86.078125 117.003906 L 82.324219 117.003906 L 82.324219 118.660156 L 86.019531 118.660156 L 86.019531 122.417969 L 87.675781 122.417969 L 87.675781 118.605469 L 91.539062 118.605469 L 91.539062 116.949219 L 87.730469 116.949219 L 87.730469 113.191406 M 51.144531 197.328125 C 51.144531 199.539062 49.378906 201.304688 47.171875 201.304688 C 44.964844 201.304688 43.199219 199.539062 43.199219 197.328125 C 43.199219 195.117188 44.964844 193.351562 47.171875 193.351562 C 49.378906 193.351562 51.144531 195.117188 51.144531 197.328125 M 49.488281 197.328125 C 49.488281 196.058594 48.441406 195.007812 47.171875 195.007812 C 45.902344 195.007812 44.855469 196.058594 44.855469 197.328125 C 44.855469 198.597656 45.902344 199.648438 47.171875 199.648438 C 48.441406 199.648438 49.488281 198.597656 49.488281 197.328125 M 51.257812 117.832031 C 51.257812 120.042969 49.488281 121.808594 47.28125 121.808594 C 45.074219 121.808594 43.308594 120.042969 43.308594 117.832031 C 43.308594 115.625 45.128906 113.855469 47.28125 113.855469 C 49.488281 113.855469 51.257812 115.625 51.257812 117.832031 M 49.601562 117.832031 C 49.601562 116.5625 48.550781 115.511719 47.28125 115.511719 C 46.011719 115.511719 44.964844 116.5625 44.964844 117.832031 C 44.964844 119.105469 46.011719 120.152344 47.28125 120.152344 C 48.550781 120.152344 49.601562 119.105469 49.601562 117.832031 M 49.875 233.179688 L 47.226562 235.886719 L 44.523438 233.179688 L 43.363281 234.339844 L 46.070312 237.046875 L 43.363281 239.753906 L 44.523438 240.914062 L 47.226562 238.207031 L 49.875 240.914062 L 51.035156 239.753906 L 48.332031 237.046875 L 51.035156 234.339844 L 49.875 233.179688 " fill-opacity="1" fill-rule="nonzero"/></g><g clip-path="url(#id10)"><path fill="#a6a6a6" d="M 11.523438 84.136719 C 11.523438 86.34375 9.757812 88.113281 7.550781 88.113281 C 5.34375 88.113281 3.578125 86.34375 3.578125 84.136719 C 3.578125 81.925781 5.34375 80.15625 7.550781 80.15625 C 9.757812 80.15625 11.523438 81.925781 11.523438 84.136719 M 47.171875 40.382812 C 44.964844 40.382812 43.199219 42.148438 43.199219 44.359375 C 43.199219 46.570312 44.964844 48.335938 47.171875 48.335938 C 49.378906 48.335938 51.144531 46.570312 51.144531 44.359375 C 51.144531 42.148438 49.378906 40.382812 47.171875 40.382812 M 86.902344 40.382812 C 84.695312 40.382812 82.929688 42.148438 82.929688 44.359375 C 82.929688 46.570312 84.695312 48.335938 86.902344 48.335938 C 89.113281 48.335938 90.878906 46.570312 90.878906 44.359375 C 90.878906 42.148438 89.054688 40.382812 86.902344 40.382812 M 126.636719 80.15625 C 124.429688 80.15625 122.664062 81.925781 122.664062 84.136719 C 122.664062 86.34375 124.429688 88.113281 126.636719 88.113281 C 128.84375 88.113281 130.609375 86.34375 130.609375 84.136719 C 130.609375 81.925781 128.84375 80.15625 126.636719 80.15625 M 86.902344 119.933594 C 84.695312 119.933594 82.929688 121.699219 82.929688 123.910156 C 82.929688 126.121094 84.695312 127.886719 86.902344 127.886719 C 89.113281 127.886719 90.878906 126.121094 90.878906 123.910156 C 90.878906 121.699219 89.054688 119.933594 86.902344 119.933594 " fill-opacity="1" fill-rule="nonzero"/></g><g clip-path="url(#id11)"><path fill="#a6a6a6" d="M 11.523438 197.328125 C 11.523438 199.539062 9.757812 201.304688 7.550781 201.304688 C 5.34375 201.304688 3.578125 199.539062 3.578125 197.328125 C 3.578125 195.117188 5.34375 193.351562 7.550781 193.351562 C 9.757812 193.351562 11.523438 195.117188 11.523438 197.328125 M 47.171875 153.574219 C 44.964844 153.574219 43.199219 155.34375 43.199219 157.550781 C 43.199219 159.761719 44.964844 161.53125 47.171875 161.53125 C 49.378906 161.53125 51.144531 159.761719 51.144531 157.550781 C 51.144531 155.34375 49.378906 153.574219 47.171875 153.574219 M 86.902344 153.574219 C 84.695312 153.574219 82.929688 155.34375 82.929688 157.550781 C 82.929688 159.761719 84.695312 161.53125 86.902344 161.53125 C 89.113281 161.53125 90.878906 159.761719 90.878906 157.550781 C 90.878906 155.34375 89.054688 153.574219 86.902344 153.574219 M 126.636719 193.351562 C 124.429688 193.351562 122.664062 195.117188 122.664062 197.328125 C 122.664062 199.539062 124.429688 201.304688 126.636719 201.304688 C 128.84375 201.304688 130.609375 199.539062 130.609375 197.328125 C 130.609375 195.117188 128.84375 193.351562 126.636719 193.351562 M 86.902344 233.125 C 84.695312 233.125 82.929688 234.890625 82.929688 237.101562 C 82.929688 239.3125 84.695312 241.078125 86.902344 241.078125 C 89.113281 241.078125 90.878906 239.3125 90.878906 237.101562 C 90.878906 234.890625 89.054688 233.125 86.902344 233.125 " fill-opacity="1" fill-rule="nonzero"/></g><g clip-path="url(#id12)"><path fill="#a6a6a6" d="M 123.988281 84.136719 C 123.988281 86.34375 122.222656 88.113281 120.015625 88.113281 C 117.804688 88.113281 116.039062 86.34375 116.039062 84.136719 C 116.039062 81.925781 117.804688 80.15625 120.015625 80.15625 C 122.222656 80.15625 123.988281 81.925781 123.988281 84.136719 M 159.636719 40.382812 C 157.425781 40.382812 155.660156 42.148438 155.660156 44.359375 C 155.660156 46.570312 157.425781 48.335938 159.636719 48.335938 C 161.84375 48.335938 163.609375 46.570312 163.609375 44.359375 C 163.609375 42.148438 161.84375 40.382812 159.636719 40.382812 M 199.367188 40.382812 C 197.160156 40.382812 195.394531 42.148438 195.394531 44.359375 C 195.394531 46.570312 197.160156 48.335938 199.367188 48.335938 C 201.574219 48.335938 203.339844 46.570312 203.339844 44.359375 C 203.339844 42.148438 201.519531 40.382812 199.367188 40.382812 M 239.097656 80.15625 C 236.890625 80.15625 235.125 81.925781 235.125 84.136719 C 235.125 86.34375 236.890625 88.113281 239.097656 88.113281 C 241.304688 88.113281 243.070312 86.34375 243.070312 84.136719 C 243.070312 81.925781 241.304688 80.15625 239.097656 80.15625 M 199.367188 119.933594 C 197.160156 119.933594 195.394531 121.699219 195.394531 123.910156 C 195.394531 126.121094 197.160156 127.886719 199.367188 127.886719 C 201.574219 127.886719 203.339844 126.121094 203.339844 123.910156 C 203.339844 121.699219 201.519531 119.933594 199.367188 119.933594 " fill-opacity="1" fill-rule="nonzero"/></g><g clip-path="url(#id13)"><path fill="#a6a6a6" d="M 123.988281 197.328125 C 123.988281 199.539062 122.222656 201.304688 120.015625 201.304688 C 117.804688 201.304688 116.039062 199.539062 116.039062 197.328125 C 116.039062 195.117188 117.804688 193.351562 120.015625 193.351562 C 122.222656 193.351562 123.988281 195.117188 123.988281 197.328125 M 159.636719 153.574219 C 157.425781 153.574219 155.660156 155.34375 155.660156 157.550781 C 155.660156 159.761719 157.425781 161.53125 159.636719 161.53125 C 161.84375 161.53125 163.609375 159.761719 163.609375 157.550781 C 163.609375 155.34375 161.84375 153.574219 159.636719 153.574219 M 199.367188 153.574219 C 197.160156 153.574219 195.394531 155.34375 195.394531 157.550781 C 195.394531 159.761719 197.160156 161.53125 199.367188 161.53125 C 201.574219 161.53125 203.339844 159.761719 203.339844 157.550781 C 203.339844 155.34375 201.519531 153.574219 199.367188 153.574219 M 239.097656 193.351562 C 236.890625 193.351562 235.125 195.117188 235.125 197.328125 C 235.125 199.539062 236.890625 201.304688 239.097656 201.304688 C 241.304688 201.304688 243.070312 199.539062 243.070312 197.328125 C 243.070312 195.117188 241.304688 193.351562 239.097656 193.351562 M 199.367188 233.125 C 197.160156 233.125 195.394531 234.890625 195.394531 237.101562 C 195.394531 239.3125 197.160156 241.078125 199.367188 241.078125 C 201.574219 241.078125 203.339844 239.3125 203.339844 237.101562 C 203.339844 234.890625 201.519531 233.125 199.367188 233.125 " fill-opacity="1" fill-rule="nonzero"/></g><g clip-path="url(#id14)"><path fill="#a6a6a6" d="M 236.449219 84.136719 C 236.449219 86.34375 234.683594 88.113281 232.476562 88.113281 C 230.269531 88.113281 228.503906 86.34375 228.503906 84.136719 C 228.503906 81.925781 230.269531 80.15625 232.476562 80.15625 C 234.683594 80.15625 236.449219 81.925781 236.449219 84.136719 M 272.097656 40.382812 C 269.890625 40.382812 268.125 42.148438 268.125 44.359375 C 268.125 46.570312 269.890625 48.335938 272.097656 48.335938 C 274.304688 48.335938 276.070312 46.570312 276.070312 44.359375 C 276.070312 42.148438 274.304688 40.382812 272.097656 40.382812 M 311.828125 40.382812 C 309.621094 40.382812 307.855469 42.148438 307.855469 44.359375 C 307.855469 46.570312 309.621094 48.335938 311.828125 48.335938 C 314.035156 48.335938 315.800781 46.570312 315.800781 44.359375 C 315.800781 42.148438 313.980469 40.382812 311.828125 40.382812 M 351.5625 80.15625 C 349.351562 80.15625 347.585938 81.925781 347.585938 84.136719 C 347.585938 86.34375 349.351562 88.113281 351.5625 88.113281 C 353.769531 88.113281 355.535156 86.34375 355.535156 84.136719 C 355.535156 81.925781 353.769531 80.15625 351.5625 80.15625 M 311.828125 119.933594 C 309.621094 119.933594 307.855469 121.699219 307.855469 123.910156 C 307.855469 126.121094 309.621094 127.886719 311.828125 127.886719 C 314.035156 127.886719 315.800781 126.121094 315.800781 123.910156 C 315.800781 121.699219 313.980469 119.933594 311.828125 119.933594 " fill-opacity="1" fill-rule="nonzero"/></g><g clip-path="url(#id15)"><path fill="#a6a6a6" d="M 236.449219 197.328125 C 236.449219 199.539062 234.683594 201.304688 232.476562 201.304688 C 230.269531 201.304688 228.503906 199.539062 228.503906 197.328125 C 228.503906 195.117188 230.269531 193.351562 232.476562 193.351562 C 234.683594 193.351562 236.449219 195.117188 236.449219 197.328125 M 272.097656 153.574219 C 269.890625 153.574219 268.125 155.34375 268.125 157.550781 C 268.125 159.761719 269.890625 161.53125 272.097656 161.53125 C 274.304688 161.53125 276.070312 159.761719 276.070312 157.550781 C 276.070312 155.34375 274.304688 153.574219 272.097656 153.574219 M 311.828125 153.574219 C 309.621094 153.574219 307.855469 155.34375 307.855469 157.550781 C 307.855469 159.761719 309.621094 161.53125 311.828125 161.53125 C 314.035156 161.53125 315.800781 159.761719 315.800781 157.550781 C 315.800781 155.34375 313.980469 153.574219 311.828125 153.574219 M 351.5625 193.351562 C 349.351562 193.351562 347.585938 195.117188 347.585938 197.328125 C 347.585938 199.539062 349.351562 201.304688 351.5625 201.304688 C 353.769531 201.304688 355.535156 199.539062 355.535156 197.328125 C 355.535156 195.117188 353.769531 193.351562 351.5625 193.351562 M 311.828125 233.125 C 309.621094 233.125 307.855469 234.890625 307.855469 237.101562 C 307.855469 239.3125 309.621094 241.078125 311.828125 241.078125 C 314.035156 241.078125 315.800781 239.3125 315.800781 237.101562 C 315.800781 234.890625 313.980469 233.125 311.828125 233.125 " fill-opacity="1" fill-rule="nonzero"/></g><g clip-path="url(#id16)"><path fill="#a6a6a6" d="M 130.5 41.652344 L 127.792969 44.359375 L 130.5 47.066406 L 129.339844 48.226562 L 126.636719 45.519531 L 123.988281 48.226562 L 122.828125 47.066406 L 125.53125 44.359375 L 122.828125 41.652344 L 123.988281 40.492188 L 126.636719 43.199219 L 129.339844 40.492188 L 130.5 41.652344 M 122.550781 4.640625 C 122.550781 2.429688 124.316406 0.664062 126.523438 0.664062 C 128.734375 0.664062 130.5 2.429688 130.5 4.640625 C 130.5 6.851562 128.734375 8.617188 126.523438 8.617188 C 124.316406 8.617188 122.550781 6.851562 122.550781 4.640625 M 124.207031 4.640625 C 124.207031 5.910156 125.257812 6.960938 126.523438 6.960938 C 127.792969 6.960938 128.84375 5.910156 128.84375 4.640625 C 128.84375 3.371094 127.792969 2.320312 126.523438 2.320312 C 125.257812 2.320312 124.207031 3.371094 124.207031 4.640625 M 3.46875 44.359375 C 3.46875 42.148438 5.234375 40.382812 7.441406 40.382812 C 9.648438 40.382812 11.414062 42.148438 11.414062 44.359375 C 11.414062 46.570312 9.648438 48.335938 7.441406 48.335938 C 5.234375 48.335938 3.46875 46.570312 3.46875 44.359375 M 5.125 44.359375 C 5.125 45.628906 6.171875 46.679688 7.441406 46.679688 C 8.710938 46.679688 9.757812 45.628906 9.757812 44.359375 C 9.757812 43.089844 8.710938 42.039062 7.441406 42.039062 C 6.171875 42.039062 5.125 43.089844 5.125 44.359375 M 8.324219 119.269531 L 6.667969 119.269531 L 6.667969 123.082031 L 2.859375 123.082031 L 2.859375 124.738281 L 6.613281 124.738281 L 6.613281 128.496094 L 8.269531 128.496094 L 8.269531 124.683594 L 12.078125 124.683594 L 12.078125 123.027344 L 8.324219 123.027344 L 8.324219 119.269531 M 4.902344 8.507812 L 7.605469 5.800781 L 10.308594 8.507812 L 11.414062 7.347656 L 8.765625 4.640625 L 11.414062 1.933594 L 10.253906 0.773438 L 7.605469 3.480469 L 4.957031 0.773438 L 3.796875 1.933594 L 6.449219 4.585938 L 3.742188 7.347656 L 4.902344 8.507812 M 130.609375 123.910156 C 130.609375 126.121094 128.84375 127.886719 126.636719 127.886719 C 124.429688 127.886719 122.664062 126.121094 122.664062 123.910156 C 122.664062 121.699219 124.429688 119.933594 126.636719 119.933594 C 128.84375 119.933594 130.609375 121.699219 130.609375 123.910156 M 128.953125 123.910156 C 128.953125 122.640625 127.90625 121.589844 126.636719 121.589844 C 125.367188 121.589844 124.316406 122.640625 124.316406 123.910156 C 124.316406 125.179688 125.367188 126.230469 126.636719 126.230469 C 127.90625 126.230469 128.953125 125.179688 128.953125 123.910156 M 89.554688 80.269531 L 86.847656 82.976562 L 84.199219 80.269531 L 83.042969 81.429688 L 85.746094 84.136719 L 83.042969 86.839844 L 84.199219 88 L 86.847656 85.296875 L 89.554688 88 L 90.710938 86.839844 L 88.007812 84.136719 L 90.710938 81.429688 L 89.554688 80.269531 M 87.730469 0 L 86.078125 0 L 86.078125 3.8125 L 82.324219 3.8125 L 82.324219 5.46875 L 86.019531 5.46875 L 86.019531 9.226562 L 87.675781 9.226562 L 87.675781 5.414062 L 91.539062 5.414062 L 91.539062 3.757812 L 87.730469 3.757812 L 87.730469 0 M 51.144531 84.136719 C 51.144531 86.34375 49.378906 88.113281 47.171875 88.113281 C 44.964844 88.113281 43.199219 86.34375 43.199219 84.136719 C 43.199219 81.925781 44.964844 80.15625 47.171875 80.15625 C 49.378906 80.15625 51.144531 81.925781 51.144531 84.136719 M 49.488281 84.136719 C 49.488281 82.863281 48.441406 81.816406 47.171875 81.816406 C 45.902344 81.816406 44.855469 82.863281 44.855469 84.136719 C 44.855469 85.40625 45.902344 86.453125 47.171875 86.453125 C 48.441406 86.453125 49.488281 85.40625 49.488281 84.136719 M 51.257812 4.640625 C 51.257812 6.851562 49.488281 8.617188 47.28125 8.617188 C 45.074219 8.617188 43.308594 6.851562 43.308594 4.640625 C 43.308594 2.429688 45.128906 0.664062 47.28125 0.664062 C 49.488281 0.664062 51.257812 2.429688 51.257812 4.640625 M 49.601562 4.640625 C 49.601562 3.371094 48.550781 2.320312 47.28125 2.320312 C 46.011719 2.320312 44.964844 3.371094 44.964844 4.640625 C 44.964844 5.910156 46.011719 6.960938 47.28125 6.960938 C 48.550781 6.960938 49.601562 5.910156 49.601562 4.640625 M 49.875 119.988281 L 47.226562 122.695312 L 44.523438 119.988281 L 43.363281 121.148438 L 46.070312 123.855469 L 43.363281 126.5625 L 44.523438 127.722656 L 47.226562 125.015625 L 49.875 127.722656 L 51.035156 126.5625 L 48.332031 123.855469 L 51.035156 121.148438 L 49.875 119.988281 " fill-opacity="1" fill-rule="nonzero"/></g><g clip-path="url(#id17)"><path fill="#a6a6a6" d="M 130.5 154.84375 L 127.792969 157.550781 L 130.5 160.257812 L 129.339844 161.417969 L 126.636719 158.710938 L 123.988281 161.417969 L 122.828125 160.257812 L 125.53125 157.550781 L 122.828125 154.84375 L 123.988281 153.6875 L 126.636719 156.390625 L 129.339844 153.6875 L 130.5 154.84375 M 122.550781 117.832031 C 122.550781 115.625 124.316406 113.855469 126.523438 113.855469 C 128.734375 113.855469 130.5 115.625 130.5 117.832031 C 130.5 120.042969 128.734375 121.808594 126.523438 121.808594 C 124.316406 121.808594 122.550781 120.042969 122.550781 117.832031 M 124.207031 117.832031 C 124.207031 119.105469 125.257812 120.152344 126.523438 120.152344 C 127.792969 120.152344 128.84375 119.105469 128.84375 117.832031 C 128.84375 116.5625 127.792969 115.511719 126.523438 115.511719 C 125.257812 115.511719 124.207031 116.5625 124.207031 117.832031 M 3.46875 157.550781 C 3.46875 155.34375 5.234375 153.574219 7.441406 153.574219 C 9.648438 153.574219 11.414062 155.34375 11.414062 157.550781 C 11.414062 159.761719 9.648438 161.53125 7.441406 161.53125 C 5.234375 161.53125 3.46875 159.761719 3.46875 157.550781 M 5.125 157.550781 C 5.125 158.824219 6.171875 159.871094 7.441406 159.871094 C 8.710938 159.871094 9.757812 158.824219 9.757812 157.550781 C 9.757812 156.28125 8.710938 155.230469 7.441406 155.230469 C 6.171875 155.230469 5.125 156.28125 5.125 157.550781 M 8.324219 232.460938 L 6.667969 232.460938 L 6.667969 236.273438 L 2.859375 236.273438 L 2.859375 237.929688 L 6.613281 237.929688 L 6.613281 241.6875 L 8.269531 241.6875 L 8.269531 237.875 L 12.078125 237.875 L 12.078125 236.21875 L 8.324219 236.21875 L 8.324219 232.460938 M 4.902344 121.699219 L 7.605469 118.992188 L 10.308594 121.699219 L 11.414062 120.539062 L 8.765625 117.832031 L 11.414062 115.125 L 10.253906 113.964844 L 7.605469 116.671875 L 4.957031 113.964844 L 3.796875 115.125 L 6.449219 117.777344 L 3.742188 120.539062 L 4.902344 121.699219 M 130.609375 237.101562 C 130.609375 239.3125 128.84375 241.078125 126.636719 241.078125 C 124.429688 241.078125 122.664062 239.3125 122.664062 237.101562 C 122.664062 234.890625 124.429688 233.125 126.636719 233.125 C 128.84375 233.125 130.609375 234.890625 130.609375 237.101562 M 128.953125 237.101562 C 128.953125 235.832031 127.90625 234.78125 126.636719 234.78125 C 125.367188 234.78125 124.316406 235.832031 124.316406 237.101562 C 124.316406 238.371094 125.367188 239.421875 126.636719 239.421875 C 127.90625 239.421875 128.953125 238.371094 128.953125 237.101562 M 89.554688 193.460938 L 86.847656 196.167969 L 84.199219 193.460938 L 83.042969 194.621094 L 85.746094 197.328125 L 83.042969 200.035156 L 84.199219 201.195312 L 86.847656 198.488281 L 89.554688 201.195312 L 90.710938 200.035156 L 88.007812 197.328125 L 90.710938 194.621094 L 89.554688 193.460938 M 87.730469 113.191406 L 86.078125 113.191406 L 86.078125 117.003906 L 82.324219 117.003906 L 82.324219 118.660156 L 86.019531 118.660156 L 86.019531 122.417969 L 87.675781 122.417969 L 87.675781 118.605469 L 91.539062 118.605469 L 91.539062 116.949219 L 87.730469 116.949219 L 87.730469 113.191406 M 51.144531 197.328125 C 51.144531 199.539062 49.378906 201.304688 47.171875 201.304688 C 44.964844 201.304688 43.199219 199.539062 43.199219 197.328125 C 43.199219 195.117188 44.964844 193.351562 47.171875 193.351562 C 49.378906 193.351562 51.144531 195.117188 51.144531 197.328125 M 49.488281 197.328125 C 49.488281 196.058594 48.441406 195.007812 47.171875 195.007812 C 45.902344 195.007812 44.855469 196.058594 44.855469 197.328125 C 44.855469 198.597656 45.902344 199.648438 47.171875 199.648438 C 48.441406 199.648438 49.488281 198.597656 49.488281 197.328125 M 51.257812 117.832031 C 51.257812 120.042969 49.488281 121.808594 47.28125 121.808594 C 45.074219 121.808594 43.308594 120.042969 43.308594 117.832031 C 43.308594 115.625 45.128906 113.855469 47.28125 113.855469 C 49.488281 113.855469 51.257812 115.625 51.257812 117.832031 M 49.601562 117.832031 C 49.601562 116.5625 48.550781 115.511719 47.28125 115.511719 C 46.011719 115.511719 44.964844 116.5625 44.964844 117.832031 C 44.964844 119.105469 46.011719 120.152344 47.28125 120.152344 C 48.550781 120.152344 49.601562 119.105469 49.601562 117.832031 M 49.875 233.179688 L 47.226562 235.886719 L 44.523438 233.179688 L 43.363281 234.339844 L 46.070312 237.046875 L 43.363281 239.753906 L 44.523438 240.914062 L 47.226562 238.207031 L 49.875 240.914062 L 51.035156 239.753906 L 48.332031 237.046875 L 51.035156 234.339844 L 49.875 233.179688 " fill-opacity="1" fill-rule="nonzero"/></g><g clip-path="url(#id18)"><path fill="#a6a6a6" d="M 242.960938 41.652344 L 240.257812 44.359375 L 242.960938 47.066406 L 241.800781 48.226562 L 239.097656 45.519531 L 236.449219 48.226562 L 235.289062 47.066406 L 237.996094 44.359375 L 235.289062 41.652344 L 236.449219 40.492188 L 239.097656 43.199219 L 241.800781 40.492188 L 242.960938 41.652344 M 235.015625 4.640625 C 235.015625 2.429688 236.78125 0.664062 238.988281 0.664062 C 241.195312 0.664062 242.960938 2.429688 242.960938 4.640625 C 242.960938 6.851562 241.195312 8.617188 238.988281 8.617188 C 236.78125 8.617188 235.015625 6.851562 235.015625 4.640625 M 236.671875 4.640625 C 236.671875 5.910156 237.71875 6.960938 238.988281 6.960938 C 240.257812 6.960938 241.304688 5.910156 241.304688 4.640625 C 241.304688 3.371094 240.257812 2.320312 238.988281 2.320312 C 237.71875 2.320312 236.671875 3.371094 236.671875 4.640625 M 115.929688 44.359375 C 115.929688 42.148438 117.695312 40.382812 119.902344 40.382812 C 122.109375 40.382812 123.875 42.148438 123.875 44.359375 C 123.875 46.570312 122.109375 48.335938 119.902344 48.335938 C 117.695312 48.335938 115.929688 46.570312 115.929688 44.359375 M 117.585938 44.359375 C 117.585938 45.628906 118.632812 46.679688 119.902344 46.679688 C 121.171875 46.679688 122.222656 45.628906 122.222656 44.359375 C 122.222656 43.089844 121.171875 42.039062 119.902344 42.039062 C 118.632812 42.039062 117.585938 43.089844 117.585938 44.359375 M 120.785156 119.269531 L 119.128906 119.269531 L 119.128906 123.082031 L 115.324219 123.082031 L 115.324219 124.738281 L 119.074219 124.738281 L 119.074219 128.496094 L 120.730469 128.496094 L 120.730469 124.683594 L 124.539062 124.683594 L 124.539062 123.027344 L 120.785156 123.027344 L 120.785156 119.269531 M 117.363281 8.507812 L 120.070312 5.800781 L 122.773438 8.507812 L 123.875 7.347656 L 121.226562 4.640625 L 123.875 1.933594 L 122.71875 0.773438 L 120.070312 3.480469 L 117.421875 0.773438 L 116.261719 1.933594 L 118.910156 4.585938 L 116.207031 7.347656 L 117.363281 8.507812 M 243.070312 123.910156 C 243.070312 126.121094 241.304688 127.886719 239.097656 127.886719 C 236.890625 127.886719 235.125 126.121094 235.125 123.910156 C 235.125 121.699219 236.890625 119.933594 239.097656 119.933594 C 241.304688 119.933594 243.070312 121.699219 243.070312 123.910156 M 241.414062 123.910156 C 241.414062 122.640625 240.367188 121.589844 239.097656 121.589844 C 237.828125 121.589844 236.78125 122.640625 236.78125 123.910156 C 236.78125 125.179688 237.828125 126.230469 239.097656 126.230469 C 240.367188 126.230469 241.414062 125.179688 241.414062 123.910156 M 202.015625 80.269531 L 199.3125 82.976562 L 196.664062 80.269531 L 195.503906 81.429688 L 198.207031 84.136719 L 195.503906 86.839844 L 196.664062 88 L 199.3125 85.296875 L 202.015625 88 L 203.175781 86.839844 L 200.46875 84.136719 L 203.175781 81.429688 L 202.015625 80.269531 M 200.195312 0 L 198.539062 0 L 198.539062 3.8125 L 194.785156 3.8125 L 194.785156 5.46875 L 198.484375 5.46875 L 198.484375 9.226562 L 200.140625 9.226562 L 200.140625 5.414062 L 204.003906 5.414062 L 204.003906 3.757812 L 200.195312 3.757812 L 200.195312 0 M 163.609375 84.136719 C 163.609375 86.34375 161.84375 88.113281 159.636719 88.113281 C 157.425781 88.113281 155.660156 86.34375 155.660156 84.136719 C 155.660156 81.925781 157.425781 80.15625 159.636719 80.15625 C 161.84375 80.15625 163.609375 81.925781 163.609375 84.136719 M 161.953125 84.136719 C 161.953125 82.863281 160.902344 81.816406 159.636719 81.816406 C 158.367188 81.816406 157.316406 82.863281 157.316406 84.136719 C 157.316406 85.40625 158.367188 86.453125 159.636719 86.453125 C 160.902344 86.453125 161.953125 85.40625 161.953125 84.136719 M 163.71875 4.640625 C 163.71875 6.851562 161.953125 8.617188 159.746094 8.617188 C 157.539062 8.617188 155.773438 6.851562 155.773438 4.640625 C 155.773438 2.429688 157.59375 0.664062 159.746094 0.664062 C 161.953125 0.664062 163.71875 2.429688 163.71875 4.640625 M 162.0625 4.640625 C 162.0625 3.371094 161.015625 2.320312 159.746094 2.320312 C 158.476562 2.320312 157.425781 3.371094 157.425781 4.640625 C 157.425781 5.910156 158.476562 6.960938 159.746094 6.960938 C 161.015625 6.960938 162.0625 5.910156 162.0625 4.640625 M 162.339844 119.988281 L 159.691406 122.695312 L 156.984375 119.988281 L 155.828125 121.148438 L 158.53125 123.855469 L 155.828125 126.5625 L 156.984375 127.722656 L 159.691406 125.015625 L 162.339844 127.722656 L 163.496094 126.5625 L 160.792969 123.855469 L 163.496094 121.148438 L 162.339844 119.988281 " fill-opacity="1" fill-rule="nonzero"/></g><g clip-path="url(#id19)"><path fill="#a6a6a6" d="M 242.960938 154.84375 L 240.257812 157.550781 L 242.960938 160.257812 L 241.800781 161.417969 L 239.097656 158.710938 L 236.449219 161.417969 L 235.289062 160.257812 L 237.996094 157.550781 L 235.289062 154.84375 L 236.449219 153.6875 L 239.097656 156.390625 L 241.800781 153.6875 L 242.960938 154.84375 M 235.015625 117.832031 C 235.015625 115.625 236.78125 113.855469 238.988281 113.855469 C 241.195312 113.855469 242.960938 115.625 242.960938 117.832031 C 242.960938 120.042969 241.195312 121.808594 238.988281 121.808594 C 236.78125 121.808594 235.015625 120.042969 235.015625 117.832031 M 236.671875 117.832031 C 236.671875 119.105469 237.71875 120.152344 238.988281 120.152344 C 240.257812 120.152344 241.304688 119.105469 241.304688 117.832031 C 241.304688 116.5625 240.257812 115.511719 238.988281 115.511719 C 237.71875 115.511719 236.671875 116.5625 236.671875 117.832031 M 115.929688 157.550781 C 115.929688 155.34375 117.695312 153.574219 119.902344 153.574219 C 122.109375 153.574219 123.875 155.34375 123.875 157.550781 C 123.875 159.761719 122.109375 161.53125 119.902344 161.53125 C 117.695312 161.53125 115.929688 159.761719 115.929688 157.550781 M 117.585938 157.550781 C 117.585938 158.824219 118.632812 159.871094 119.902344 159.871094 C 121.171875 159.871094 122.222656 158.824219 122.222656 157.550781 C 122.222656 156.28125 121.171875 155.230469 119.902344 155.230469 C 118.632812 155.230469 117.585938 156.28125 117.585938 157.550781 M 120.785156 232.460938 L 119.128906 232.460938 L 119.128906 236.273438 L 115.324219 236.273438 L 115.324219 237.929688 L 119.074219 237.929688 L 119.074219 241.6875 L 120.730469 241.6875 L 120.730469 237.875 L 124.539062 237.875 L 124.539062 236.21875 L 120.785156 236.21875 L 120.785156 232.460938 M 117.363281 121.699219 L 120.070312 118.992188 L 122.773438 121.699219 L 123.875 120.539062 L 121.226562 117.832031 L 123.875 115.125 L 122.71875 113.964844 L 120.070312 116.671875 L 117.421875 113.964844 L 116.261719 115.125 L 118.910156 117.777344 L 116.207031 120.539062 L 117.363281 121.699219 M 243.070312 237.101562 C 243.070312 239.3125 241.304688 241.078125 239.097656 241.078125 C 236.890625 241.078125 235.125 239.3125 235.125 237.101562 C 235.125 234.890625 236.890625 233.125 239.097656 233.125 C 241.304688 233.125 243.070312 234.890625 243.070312 237.101562 M 241.414062 237.101562 C 241.414062 235.832031 240.367188 234.78125 239.097656 234.78125 C 237.828125 234.78125 236.78125 235.832031 236.78125 237.101562 C 236.78125 238.371094 237.828125 239.421875 239.097656 239.421875 C 240.367188 239.421875 241.414062 238.371094 241.414062 237.101562 M 202.015625 193.460938 L 199.3125 196.167969 L 196.664062 193.460938 L 195.503906 194.621094 L 198.207031 197.328125 L 195.503906 200.035156 L 196.664062 201.195312 L 199.3125 198.488281 L 202.015625 201.195312 L 203.175781 200.035156 L 200.46875 197.328125 L 203.175781 194.621094 L 202.015625 193.460938 M 200.195312 113.191406 L 198.539062 113.191406 L 198.539062 117.003906 L 194.785156 117.003906 L 194.785156 118.660156 L 198.484375 118.660156 L 198.484375 122.417969 L 200.140625 122.417969 L 200.140625 118.605469 L 204.003906 118.605469 L 204.003906 116.949219 L 200.195312 116.949219 L 200.195312 113.191406 M 163.609375 197.328125 C 163.609375 199.539062 161.84375 201.304688 159.636719 201.304688 C 157.425781 201.304688 155.660156 199.539062 155.660156 197.328125 C 155.660156 195.117188 157.425781 193.351562 159.636719 193.351562 C 161.84375 193.351562 163.609375 195.117188 163.609375 197.328125 M 161.953125 197.328125 C 161.953125 196.058594 160.902344 195.007812 159.636719 195.007812 C 158.367188 195.007812 157.316406 196.058594 157.316406 197.328125 C 157.316406 198.597656 158.367188 199.648438 159.636719 199.648438 C 160.902344 199.648438 161.953125 198.597656 161.953125 197.328125 M 163.71875 117.832031 C 163.71875 120.042969 161.953125 121.808594 159.746094 121.808594 C 157.539062 121.808594 155.773438 120.042969 155.773438 117.832031 C 155.773438 115.625 157.59375 113.855469 159.746094 113.855469 C 161.953125 113.855469 163.71875 115.625 163.71875 117.832031 M 162.0625 117.832031 C 162.0625 116.5625 161.015625 115.511719 159.746094 115.511719 C 158.476562 115.511719 157.425781 116.5625 157.425781 117.832031 C 157.425781 119.105469 158.476562 120.152344 159.746094 120.152344 C 161.015625 120.152344 162.0625 119.105469 162.0625 117.832031 M 162.339844 233.179688 L 159.691406 235.886719 L 156.984375 233.179688 L 155.828125 234.339844 L 158.53125 237.046875 L 155.828125 239.753906 L 156.984375 240.914062 L 159.691406 238.207031 L 162.339844 240.914062 L 163.496094 239.753906 L 160.792969 237.046875 L 163.496094 234.339844 L 162.339844 233.179688 " fill-opacity="1" fill-rule="nonzero"/></g><g clip-path="url(#id20)"><path fill="#a6a6a6" d="M 355.421875 41.652344 L 352.71875 44.359375 L 355.421875 47.066406 L 354.265625 48.226562 L 351.5625 45.519531 L 348.910156 48.226562 L 347.753906 47.066406 L 350.457031 44.359375 L 347.753906 41.652344 L 348.910156 40.492188 L 351.5625 43.199219 L 354.265625 40.492188 L 355.421875 41.652344 M 347.476562 4.640625 C 347.476562 2.429688 349.242188 0.664062 351.449219 0.664062 C 353.65625 0.664062 355.421875 2.429688 355.421875 4.640625 C 355.421875 6.851562 353.65625 8.617188 351.449219 8.617188 C 349.242188 8.617188 347.476562 6.851562 347.476562 4.640625 M 349.132812 4.640625 C 349.132812 5.910156 350.179688 6.960938 351.449219 6.960938 C 352.71875 6.960938 353.769531 5.910156 353.769531 4.640625 C 353.769531 3.371094 352.71875 2.320312 351.449219 2.320312 C 350.179688 2.320312 349.132812 3.371094 349.132812 4.640625 M 228.394531 44.359375 C 228.394531 42.148438 230.160156 40.382812 232.367188 40.382812 C 234.574219 40.382812 236.339844 42.148438 236.339844 44.359375 C 236.339844 46.570312 234.574219 48.335938 232.367188 48.335938 C 230.160156 48.335938 228.394531 46.570312 228.394531 44.359375 M 230.046875 44.359375 C 230.046875 45.628906 231.097656 46.679688 232.367188 46.679688 C 233.636719 46.679688 234.683594 45.628906 234.683594 44.359375 C 234.683594 43.089844 233.636719 42.039062 232.367188 42.039062 C 231.097656 42.039062 230.046875 43.089844 230.046875 44.359375 M 233.25 119.269531 L 231.59375 119.269531 L 231.59375 123.082031 L 227.785156 123.082031 L 227.785156 124.738281 L 231.539062 124.738281 L 231.539062 128.496094 L 233.195312 128.496094 L 233.195312 124.683594 L 237 124.683594 L 237 123.027344 L 233.25 123.027344 L 233.25 119.269531 M 229.828125 8.507812 L 232.53125 5.800781 L 235.234375 8.507812 L 236.339844 7.347656 L 233.691406 4.640625 L 236.339844 1.933594 L 235.179688 0.773438 L 232.53125 3.480469 L 229.882812 0.773438 L 228.722656 1.933594 L 231.371094 4.585938 L 228.667969 7.347656 L 229.828125 8.507812 M 355.535156 123.910156 C 355.535156 126.121094 353.769531 127.886719 351.5625 127.886719 C 349.351562 127.886719 347.585938 126.121094 347.585938 123.910156 C 347.585938 121.699219 349.351562 119.933594 351.5625 119.933594 C 353.769531 119.933594 355.535156 121.699219 355.535156 123.910156 M 353.878906 123.910156 C 353.878906 122.640625 352.828125 121.589844 351.5625 121.589844 C 350.292969 121.589844 349.242188 122.640625 349.242188 123.910156 C 349.242188 125.179688 350.292969 126.230469 351.5625 126.230469 C 352.828125 126.230469 353.878906 125.179688 353.878906 123.910156 M 314.476562 80.269531 L 311.773438 82.976562 L 309.125 80.269531 L 307.964844 81.429688 L 310.671875 84.136719 L 307.964844 86.839844 L 309.125 88 L 311.773438 85.296875 L 314.476562 88 L 315.636719 86.839844 L 312.933594 84.136719 L 315.636719 81.429688 L 314.476562 80.269531 M 312.65625 0 L 311 0 L 311 3.8125 L 307.25 3.8125 L 307.25 5.46875 L 310.945312 5.46875 L 310.945312 9.226562 L 312.601562 9.226562 L 312.601562 5.414062 L 316.464844 5.414062 L 316.464844 3.757812 L 312.65625 3.757812 L 312.65625 0 M 276.070312 84.136719 C 276.070312 86.34375 274.304688 88.113281 272.097656 88.113281 C 269.890625 88.113281 268.125 86.34375 268.125 84.136719 C 268.125 81.925781 269.890625 80.15625 272.097656 80.15625 C 274.304688 80.15625 276.070312 81.925781 276.070312 84.136719 M 274.414062 84.136719 C 274.414062 82.863281 273.367188 81.816406 272.097656 81.816406 C 270.828125 81.816406 269.78125 82.863281 269.78125 84.136719 C 269.78125 85.40625 270.828125 86.453125 272.097656 86.453125 C 273.367188 86.453125 274.414062 85.40625 274.414062 84.136719 M 276.179688 4.640625 C 276.179688 6.851562 274.414062 8.617188 272.207031 8.617188 C 270 8.617188 268.234375 6.851562 268.234375 4.640625 C 268.234375 2.429688 270.054688 0.664062 272.207031 0.664062 C 274.414062 0.664062 276.179688 2.429688 276.179688 4.640625 M 274.527344 4.640625 C 274.527344 3.371094 273.476562 2.320312 272.207031 2.320312 C 270.9375 2.320312 269.890625 3.371094 269.890625 4.640625 C 269.890625 5.910156 270.9375 6.960938 272.207031 6.960938 C 273.476562 6.960938 274.527344 5.910156 274.527344 4.640625 M 274.800781 119.988281 L 272.152344 122.695312 L 269.449219 119.988281 L 268.289062 121.148438 L 270.992188 123.855469 L 268.289062 126.5625 L 269.449219 127.722656 L 272.152344 125.015625 L 274.800781 127.722656 L 275.960938 126.5625 L 273.257812 123.855469 L 275.960938 121.148438 L 274.800781 119.988281 " fill-opacity="1" fill-rule="nonzero"/></g><g clip-path="url(#id21)"><path fill="#a6a6a6" d="M 355.421875 154.84375 L 352.71875 157.550781 L 355.421875 160.257812 L 354.265625 161.417969 L 351.5625 158.710938 L 348.910156 161.417969 L 347.753906 160.257812 L 350.457031 157.550781 L 347.753906 154.84375 L 348.910156 153.6875 L 351.5625 156.390625 L 354.265625 153.6875 L 355.421875 154.84375 M 347.476562 117.832031 C 347.476562 115.625 349.242188 113.855469 351.449219 113.855469 C 353.65625 113.855469 355.421875 115.625 355.421875 117.832031 C 355.421875 120.042969 353.65625 121.808594 351.449219 121.808594 C 349.242188 121.808594 347.476562 120.042969 347.476562 117.832031 M 349.132812 117.832031 C 349.132812 119.105469 350.179688 120.152344 351.449219 120.152344 C 352.71875 120.152344 353.769531 119.105469 353.769531 117.832031 C 353.769531 116.5625 352.71875 115.511719 351.449219 115.511719 C 350.179688 115.511719 349.132812 116.5625 349.132812 117.832031 M 228.394531 157.550781 C 228.394531 155.34375 230.160156 153.574219 232.367188 153.574219 C 234.574219 153.574219 236.339844 155.34375 236.339844 157.550781 C 236.339844 159.761719 234.574219 161.53125 232.367188 161.53125 C 230.160156 161.53125 228.394531 159.761719 228.394531 157.550781 M 230.046875 157.550781 C 230.046875 158.824219 231.097656 159.871094 232.367188 159.871094 C 233.636719 159.871094 234.683594 158.824219 234.683594 157.550781 C 234.683594 156.28125 233.636719 155.230469 232.367188 155.230469 C 231.097656 155.230469 230.046875 156.28125 230.046875 157.550781 M 233.25 232.460938 L 231.59375 232.460938 L 231.59375 236.273438 L 227.785156 236.273438 L 227.785156 237.929688 L 231.539062 237.929688 L 231.539062 241.6875 L 233.195312 241.6875 L 233.195312 237.875 L 237 237.875 L 237 236.21875 L 233.25 236.21875 L 233.25 232.460938 M 229.828125 121.699219 L 232.53125 118.992188 L 235.234375 121.699219 L 236.339844 120.539062 L 233.691406 117.832031 L 236.339844 115.125 L 235.179688 113.964844 L 232.53125 116.671875 L 229.882812 113.964844 L 228.722656 115.125 L 231.371094 117.777344 L 228.667969 120.539062 L 229.828125 121.699219 M 355.535156 237.101562 C 355.535156 239.3125 353.769531 241.078125 351.5625 241.078125 C 349.351562 241.078125 347.585938 239.3125 347.585938 237.101562 C 347.585938 234.890625 349.351562 233.125 351.5625 233.125 C 353.769531 233.125 355.535156 234.890625 355.535156 237.101562 M 353.878906 237.101562 C 353.878906 235.832031 352.828125 234.78125 351.5625 234.78125 C 350.292969 234.78125 349.242188 235.832031 349.242188 237.101562 C 349.242188 238.371094 350.292969 239.421875 351.5625 239.421875 C 352.828125 239.421875 353.878906 238.371094 353.878906 237.101562 M 314.476562 193.460938 L 311.773438 196.167969 L 309.125 193.460938 L 307.964844 194.621094 L 310.671875 197.328125 L 307.964844 200.035156 L 309.125 201.195312 L 311.773438 198.488281 L 314.476562 201.195312 L 315.636719 200.035156 L 312.933594 197.328125 L 315.636719 194.621094 L 314.476562 193.460938 M 312.65625 113.191406 L 311 113.191406 L 311 117.003906 L 307.25 117.003906 L 307.25 118.660156 L 310.945312 118.660156 L 310.945312 122.417969 L 312.601562 122.417969 L 312.601562 118.605469 L 316.464844 118.605469 L 316.464844 116.949219 L 312.65625 116.949219 L 312.65625 113.191406 M 276.070312 197.328125 C 276.070312 199.539062 274.304688 201.304688 272.097656 201.304688 C 269.890625 201.304688 268.125 199.539062 268.125 197.328125 C 268.125 195.117188 269.890625 193.351562 272.097656 193.351562 C 274.304688 193.351562 276.070312 195.117188 276.070312 197.328125 M 274.414062 197.328125 C 274.414062 196.058594 273.367188 195.007812 272.097656 195.007812 C 270.828125 195.007812 269.78125 196.058594 269.78125 197.328125 C 269.78125 198.597656 270.828125 199.648438 272.097656 199.648438 C 273.367188 199.648438 274.414062 198.597656 274.414062 197.328125 M 276.179688 117.832031 C 276.179688 120.042969 274.414062 121.808594 272.207031 121.808594 C 270 121.808594 268.234375 120.042969 268.234375 117.832031 C 268.234375 115.625 270.054688 113.855469 272.207031 113.855469 C 274.414062 113.855469 276.179688 115.625 276.179688 117.832031 M 274.527344 117.832031 C 274.527344 116.5625 273.476562 115.511719 272.207031 115.511719 C 270.9375 115.511719 269.890625 116.5625 269.890625 117.832031 C 269.890625 119.105469 270.9375 120.152344 272.207031 120.152344 C 273.476562 120.152344 274.527344 119.105469 274.527344 117.832031 M 274.800781 233.179688 L 272.152344 235.886719 L 269.449219 233.179688 L 268.289062 234.339844 L 270.992188 237.046875 L 268.289062 239.753906 L 269.449219 240.914062 L 272.152344 238.207031 L 274.800781 240.914062 L 275.960938 239.753906 L 273.257812 237.046875 L 275.960938 234.339844 L 274.800781 233.179688 " fill-opacity="1" fill-rule="nonzero"/></g></svg>